<?xml version="1.0" standalone="no"?>
<!DOCTYPE svg PUBLIC "-//W3C//DTD SVG 20010904//EN"
 "http://www.w3.org/TR/2001/REC-SVG-20010904/DTD/svg10.dtd">
<svg version="1.0" xmlns="http://www.w3.org/2000/svg"
 width="1024.000000pt" height="1024.000000pt" viewBox="0 0 1024.000000 1024.000000"
 preserveAspectRatio="xMidYMid meet">

<g transform="translate(0.000000,1024.000000) scale(0.100000,-0.100000)"
fill="#000000" stroke="none">
<path d="M2370 7335 c0 -200 -3 -285 -11 -285 -6 0 -104 24 -217 54 -114 30
-222 57 -240 61 l-32 7 0 -1615 c0 -1271 3 -1617 13 -1625 6 -5 107 -37 222
-70 1116 -325 2230 -658 2391 -715 54 -20 106 -46 380 -193 127 -68 236 -124
243 -124 7 0 119 60 249 132 131 73 266 147 302 165 62 31 294 105 820 262
827 246 907 269 1590 466 l285 82 -3 1614 c-2 887 -5 1615 -7 1617 -2 2 -109
-26 -238 -62 -128 -36 -237 -66 -240 -66 -4 0 -7 130 -7 289 l0 290 -27 -9
c-16 -4 -113 -38 -218 -75 -761 -268 -935 -330 -1210 -430 -289 -106 -376
-140 -579 -225 -44 -18 -210 -99 -370 -179 l-291 -146 0 -508 0 -507 -63 0
-62 0 2 512 3 511 -210 103 c-522 254 -855 389 -1785 719 -396 141 -668 235
-682 235 -4 0 -8 -128 -8 -285z m708 -131 c776 -298 1206 -479 1621 -680 l204
-99 -6 -1225 c-4 -674 -7 -1305 -7 -1403 l0 -179 -72 67 c-172 159 -385 309
-627 442 l-135 74 -410 100 c-370 90 -1374 341 -1419 355 -153 47 665 -96
1709 -300 l220 -43 296 -152 c162 -83 298 -151 302 -151 3 0 6 411 6 913 l-1
912 -255 153 -255 154 -102 14 c-56 8 -370 48 -697 89 -327 42 -599 77 -604
78 -7 2 253 106 615 245 l116 45 329 -106 c181 -58 442 -145 579 -192 313
-108 309 -107 195 -45 -427 233 -753 347 -1817 636 l-253 69 0 202 c0 112 2
203 5 203 3 0 211 -79 463 -176z m4534 -32 l-3 -199 -267 -72 c-933 -255
-1283 -373 -1657 -562 -196 -99 -274 -147 -175 -108 152 59 1102 369 1132 369
10 0 173 -58 361 -130 189 -71 348 -130 355 -130 7 0 12 -4 12 -10 0 -5 -12
-10 -27 -10 -16 0 -143 -16 -283 -35 -140 -19 -430 -58 -645 -86 -214 -27
-403 -54 -420 -58 -16 -5 -142 -76 -280 -159 l-250 -150 1 -238 c1 -132 2
-544 3 -917 l1 -678 228 117 c125 64 263 136 308 159 52 27 106 47 150 54 38
7 258 48 489 91 583 110 1396 252 1403 245 2 -2 -23 -11 -55 -20 -91 -27
-1019 -254 -1428 -350 -203 -47 -393 -97 -421 -110 -197 -89 -559 -337 -736
-503 l-68 -64 0 1404 0 1404 268 131 c274 135 429 204 727 323 412 164 1254
489 1270 490 6 0 9 -71 7 -198z m-5162 -317 c315 -69 882 -205 892 -214 7 -6
-156 -72 -617 -248 l-170 -65 -170 22 c-93 11 -185 23 -202 26 l-33 5 0 270 0
269 23 -5 c12 -2 137 -30 277 -60z m5621 -205 l1 -264 -28 -8 c-16 -3 -106
-16 -200 -28 l-170 -21 -165 60 c-90 33 -265 98 -389 145 -124 48 -231 89
-239 91 -8 3 -12 8 -9 10 11 12 1186 287 1195 281 1 -1 3 -121 4 -266z m-2893
-1492 l2 -278 -65 0 -65 0 0 273 c0 151 2 276 4 278 3 2 31 4 63 4 l58 0 3
-277z m2 -678 l0 -290 -65 0 -65 0 0 290 0 290 65 0 65 0 0 -290z m0 -809 l0
-410 -31 -22 c-31 -22 -32 -22 -65 -4 l-34 18 0 414 0 413 65 0 65 0 0 -409z
m-1006 260 c116 -60 240 -126 276 -146 164 -96 291 -218 365 -350 55 -97 55
-97 -38 -49 -46 24 -136 64 -198 90 -104 41 -170 57 -741 171 -346 70 -628
129 -628 132 0 3 114 44 253 90 138 47 304 104 367 127 63 24 119 43 124 43 5
1 104 -48 220 -108z m2451 -16 c197 -69 365 -125 372 -125 7 0 13 -3 13 -7 0
-8 -124 -35 -675 -148 -636 -130 -617 -124 -837 -235 l-136 -69 39 71 c73 132
168 237 300 331 37 26 170 100 295 165 206 105 269 138 269 141 0 0 162 -55
360 -124z"/>
</g>
</svg>
